<?xml version="1.0" encoding="UTF-8" standalone="no"?>
<svg
   xmlns:dc="http://purl.org/dc/elements/1.1/"
   xmlns:cc="http://creativecommons.org/ns#"
   xmlns:rdf="http://www.w3.org/1999/02/22-rdf-syntax-ns#"
   xmlns:svg="http://www.w3.org/2000/svg"
   xmlns="http://www.w3.org/2000/svg"
   xmlns:sodipodi="http://sodipodi.sourceforge.net/DTD/sodipodi-0.dtd"
   xmlns:inkscape="http://www.inkscape.org/namespaces/inkscape"
   viewBox="0 0 22 22"
   version="1.1"
   id="svg3869"
   height="22"
   width="22"
   sodipodi:docname="kalarm.svg"
   inkscape:version="0.92.4 5da689c313, 2019-01-14">
  <sodipodi:namedview
     pagecolor="#ffffff"
     bordercolor="#666666"
     borderopacity="1"
     objecttolerance="10"
     gridtolerance="10"
     guidetolerance="10"
     inkscape:pageopacity="0"
     inkscape:pageshadow="2"
     inkscape:window-width="1920"
     inkscape:window-height="1031"
     id="namedview17"
     showgrid="false"
     inkscape:zoom="10.727273"
     inkscape:cx="11.858231"
     inkscape:cy="10.695401"
     inkscape:window-x="0"
     inkscape:window-y="26"
     inkscape:window-maximized="1"
     inkscape:current-layer="svg3869" />
  <metadata
     id="metadata16">
    <rdf:RDF>
      <cc:Work
         rdf:about="">
        <dc:format>image/svg+xml</dc:format>
        <dc:type
           rdf:resource="http://purl.org/dc/dcmitype/StillImage" />
        <dc:title />
      </cc:Work>
    </rdf:RDF>
  </metadata>
  <defs
     id="defs3871">
    <style
       id="current-color-scheme"
       type="text/css">
      .ColorScheme-Text {
        color:#31363b;
      }
      .ColorScheme-Background {
        color:#eff0f1;
      }
      .ColorScheme-Highlight {
        color:#3daee9;
      }
      .ColorScheme-ViewText {
        color:#31363b;
      }
      .ColorScheme-ViewBackground {
        color:#fcfcfc;
      }
      .ColorScheme-ViewHover {
        color:#93cee9;
      }
      .ColorScheme-ViewFocus{
        color:#3daee9;
      }
      .ColorScheme-ButtonText {
        color:#31363b;
      }
      .ColorScheme-ButtonBackground {
        color:#eff0f1;
      }
      .ColorScheme-ButtonHover {
        color:#93cee9;
      }
      .ColorScheme-ButtonFocus{
        color:#3daee9;
      }
      </style>
  </defs>
  <path
     style="opacity:1;fill:#0d0d0d;fill-opacity:0.88235295;stroke:none;stroke-width:6;stroke-linecap:round;stroke-linejoin:round;stroke-miterlimit:4;stroke-dasharray:none;stroke-dashoffset:0;stroke-opacity:0.01209675;paint-order:fill markers stroke"
     d="M 11,2 A 1.5264831,1.5264831 0 0 0 9.4785152,3.396485 c -2.609528,0.63743 -4.537109,2.975385 -4.537109,5.787109 v 5.27539 c -0.77371,0.488309 -1.567184,0.965969 -2.376953,1.455078 H 19.435547 c -0.884839,-0.515323 -1.743131,-1.036056 -2.5625,-1.582031 V 9.183594 c 0,-2.742644 -1.835335,-5.035422 -4.347657,-5.738281 A 1.5264831,1.5264831 0 0 0 11,2 Z M 8.6894532,16.916015 c 0.208728,1.089036 1.15885,1.908203 2.3105468,1.908203 1.151696,0 2.101817,-0.819167 2.310547,-1.908203 z"
     id="rect823"
     inkscape:connector-curvature="0" />
  <path
     style="opacity:1;fill:#0d0d0d;fill-opacity:0.88235295;stroke:none;stroke-width:6;stroke-linecap:round;stroke-linejoin:round;stroke-miterlimit:4;stroke-dasharray:none;stroke-dashoffset:0;stroke-opacity:0.01209675;paint-order:fill markers stroke"
     d="M 33 2 A 1.5264831 1.5264831 0 0 0 31.478516 3.3964844 C 28.868988 4.0339144 26.941406 6.3718698 26.941406 9.1835938 L 26.941406 14.458984 C 26.167696 14.947293 25.374222 15.424953 24.564453 15.914062 L 41.435547 15.914062 C 40.550708 15.398739 39.692416 14.878006 38.873047 14.332031 L 38.873047 9.1835938 C 38.873047 6.4409497 37.037713 4.1481715 34.525391 3.4453125 A 1.5264831 1.5264831 0 0 0 33 2 z M 30 8 L 32 8 L 32 14 L 30 14 L 30 8 z M 34 8 L 36 8 L 36 14 L 34 14 L 34 8 z M 30.689453 16.916016 C 30.898181 18.005052 31.848303 18.824219 33 18.824219 C 34.151696 18.824219 35.101817 18.005052 35.310547 16.916016 L 30.689453 16.916016 z "
     id="path844" />
  <path
     style="opacity:1;fill:#0d0d0d;fill-opacity:0.88235295;stroke:none;stroke-width:6;stroke-linecap:round;stroke-linejoin:round;stroke-miterlimit:4;stroke-dasharray:none;stroke-dashoffset:0;stroke-opacity:0.01209675;paint-order:fill markers stroke"
     d="M -11 2 A 1.5264831 1.5264831 0 0 0 -12.521484 3.3964844 C -15.131012 4.0339144 -17.058594 6.3718698 -17.058594 9.1835938 L -17.058594 14.458984 C -17.832304 14.947293 -18.625778 15.424953 -19.435547 15.914062 L -2.5644531 15.914062 C -3.4492921 15.398739 -4.3075841 14.878006 -5.1269531 14.332031 L -5.1269531 9.1835938 C -5.1269531 6.4409497 -6.9622874 4.1481715 -9.4746094 3.4453125 A 1.5264831 1.5264831 0 0 0 -11 2 z M -14 8 L -8 8 L -8 14 L -14 14 L -14 8 z M -13.310547 16.916016 C -13.101819 18.005052 -12.151697 18.824219 -11 18.824219 C -9.848304 18.824219 -8.8981831 18.005052 -8.6894531 16.916016 L -13.310547 16.916016 z "
     id="path852" />
</svg>
